<?xml version="1.0" encoding="UTF-8"?>
<svg width="479px" height="422px" viewBox="0 0 479 422" version="1.1" xmlns="http://www.w3.org/2000/svg" xmlns:xlink="http://www.w3.org/1999/xlink">
    <title>logo</title>
    <g id="Page-1" stroke="none" stroke-width="1" fill="none" fill-rule="evenodd">
        <g id="logo" transform="translate(0.500000, 0.985313)" fill-rule="nonzero">
            <g id="Group" transform="translate(239.164199, 210.507343) scale(-1, 1) rotate(-180.000000) translate(-239.164199, -210.507343) ">
                <path d="M431.10139,14.0415045 L431.151674,14.8976889 L431.151674,14.8976889 L431.199074,15.7573695 L431.199074,15.7573695 L431.243484,16.6193416 C431.286365,17.4820576 431.324604,18.3464033 431.357726,19.2069564 L431.389126,20.0660444 C431.448444,21.7808889 431.486667,23.4733333 431.5,25.1 C431.5,35.9 432.3,40 434.3,40 C436.8,40 449.8,46.7 453.9,50.1 C459.9,55.2 466.1,64.2 469.6,73.3 C474,84.7 474.8,98.9 471.6,110.3 C469.4,118.2 465.4,127.3 463.5,128.5 C461.8,129.6 462.4,132.3 464.9,134.9 C474.3,144.8 478.5,168.6 473.6,184.1 C471.1,191.9 465.2,201.2 459.4,206.5 L455.3,210.2 L457.5,217.8 C461.6,231.7 461.1,245.8 456.1,254.6 L453.8,258.5 L458.8,268.5 C471,293.1 477.1,313.9 478.1,335 C479.7,366.6 472.9,390.1 457.5,406 C450.8,412.9 444.4,416.7 435.6,419.2 C423.9,422.4 413.8,421.2 401.5,415 C388.7,408.5 381.4,399 367.1,369.6 L357.7,350.5 L336.8,350.5 L333.4,355.9 C329.2,362.5 316.8,374.3 307.5,380.5 C297.9,386.9 283.9,392.4 269.8,395.4 C265.843478,396.252174 259.589792,397.660113 253.249116,399.15021 L251.889874,399.470601 C248.265974,400.32741 244.665217,401.2 241.5,402 C214.3,408.8 206.7,408.5 200,400.7 C196.3,396.4 192.5,386.3 192.5,380.8 C192.5,378.5 192.1,378 190.8,378.4 C189.8,378.7 182.7,379.9 175,381 C174.057143,381.146939 173.094794,381.299875 172.125805,381.456789 L171.155078,381.614955 C170.99308,381.641512 170.831017,381.66816 170.668947,381.694892 L169.696936,381.856193 C163.546439,382.88309 157.559184,384.002041 155,384.7 C141.5,388.1 137.8,387.5 132,380.8 C128.1,376.1 126.5,370.2 126.5,360 C126.5,353.3 126.4,353 124.1,353 C122.8,353 121,352.7 120.2,352.4 C119.1,352 116.2,356.7 109,370.2 C103.6,380.3 97,392 94.3,396.2 C89.3,404.1 80.7,412.8 75.2,415.6 C63.8,421.5 49.8,422.7 38.9,418.6 C30.3,415.4 26.9,413.1 19.2,405.1 C11.4,397.1 6.1,386.9 2.4,373 C0.4,365.7 0.1,362 2.67281267e-14,347.5 C2.67281267e-14,344.996154 0.0434911243,342.318343 0.122667274,339.644157 L0.158761948,338.498817 C0.38816568,331.63432 0.846153846,324.961538 1.4,321.5 C3.7,305.8 15.6,272.6 22.5,262.4 L25.5,257.8 L23.3,251.7 C21.4333333,246.591228 21.0144968,243.60594 21.0003753,233.545759 L21.0006292,231.966462 C21.0144852,221.404095 21.2769231,219.836923 23.7,214.7 L26.4,209 L23.4,206.7 C18.8,203.4 11.9,193.7 9.5,187.2 C8.3,184.1 6.9,177.7 6.3,173 C4.5,158.4 9.1,142.7 17.5,134.5 L21.3,130.8 L17.9,125.2 C11.2943662,114.256338 10.1320968,110.019679 10.1006672,95.6232589 L10.1009016,93.9110744 C10.120355,82.7670769 10.4707692,80.6153846 12.7,74.8 C19.8,56.1 31.4,43.8 45.4,40 L49.8,38.9 L49.2,31.7 C48.8364152,26.9006803 49.2659939,15.385909 50.0273246,5.99940828 L73.4545824,5.99997426 C73.203439,8.01415732 73.0793682,10.2564944 73.0688726,13.0981629 L73.0684499,13.7602195 C73.0777778,17.7975309 73.3,23.0222222 73.7,30.4 C74.4,43.4 74.4,49.3 73.6,52.1 C72.5,55.6 72.2,55.8 66.7,56.8 C63.6,57.4 58.5,58.8 55.4,59.9 C40.5,65.5 32.5,80.5 33.8,100.2 C34.5,111.4 38.4,118.1 49.3,127.2 C56.3,133.1 57.6,134.6 57.3,136.8 C57.1,139 56.2,139.8 53,140.8 C38.9,145.2 35.7,147.8 32.5,157.6 C29.5,166.5 29.7,173.8 33,180.6 C37.4,189.6 46,195.7 56.7,197.5 C58.7,197.8 61.4,199 62.7,200.1 L65,202 L61.5,204.7 C50.6,213.2 48.5,216.7 45.3,232.1 C42.9,243.6 49.4,257.1 60.5,263.8 C67.4,267.9 71.1,268.9 82.8,269.8 L92,270.5 L91.7,278.2 C90.9,298.3 97.3,312.4 112.5,323.5 C117.1,326.9 127,331 130.4,331 C131.3,330.9 135.1,328 138.9,324.4 L145.7,317.8 L143.1,313 C139.5,306.5 137.6,290 139.2,280.4 C142,264 152.4,250.5 167.5,243.2 C179.306452,237.591935 183.272086,236.630281 196.349431,236.600719 L198.072408,236.600411 C208.652406,236.609877 209.573016,236.814286 217.9,240.3 C222.8,242.3 227.9,245 229.2,246.2 L231.7,248.5 L234.8,244.5 C242.1,235.3 248.5,231.3 261.5,227.9 C283.8,222.1 306.3,228.4 321.9,245 C330.3,254 333,259.7 332.9,268.2 C332.9,275.6 331.4,278.3 326.8,279.5 C323.6,280.3 321.5,278.5 317.6,271.6 C306.9,252.7 282.6,244.1 263.9,252.5 C251.6,258 246.8,267.6 248.1,284 C248.7,292.5 248.7,292.9 246.2,295.3 C242.7,298.9 235.2,299.9 231.7,297.3 C227.9,294.5 225.4,288.9 223.9,279.8 C223.1,275.4 222,270.9 221.4,269.8 C220.8,268.7 217.3,266.4 213.7,264.7 C207.717544,261.805263 206.297261,261.517482 197.490602,261.500851 L196.5,261.5 C187.4,261.5 185.3,261.8 181.1,264 C170.4,269.2 164.5,279.1 164.5,291.8 C164.5,303.6 170.2,312.3 184.5,322.7 C185.078125,323.121875 185.616577,323.518115 186.117645,323.891868 L186.701129,324.329778 C192.076538,328.391211 192.7125,329.69375 192,332.9 C190.827174,338.132609 189.003214,339.295629 178.524299,339.326241 L177.751599,339.326523 C176.832266,339.324646 175.85,339.315217 174.8,339.3 L162.4,339.1 L158.4,343.1 C152.9,348.6 150.5,352.9 150.5,357.3 C150.5,360.7 150.7,361 153.4,361 C155,361 159.4,360.4 163.2,359.6 C166.9,358.8 176.3,357.5 184,356.6 C192.2,355.7 204.5,353.4 213.9,351 C222.6,348.8 230.6,347 231.7,347 C235.1,347 238.5,351.5 238.5,355.9 C238.5,359.6 238,360.3 230.3,367.1 C225.7,371.1 221.5,375.1 220.8,375.9 C219.1,378.1 219.1,383.4 220.8,382.7 C221.5,382.4 225.4,381.3 229.5,380.1 C233.6,379 245.3,376.2 255.4,374 C277.1,369.2 286.9,365.6 297.1,358.8 C309.5,350.5 315.2,342 319.5,325.3 C321,319.2 324.8,318.7 334.1,323.1 C340,325.8 342.1,326.3 348.5,326.3 C359.3,326.4 365.3,324.1 372.9,316.9 C383.2,307.3 388.5,294.7 388.5,279.7 C388.5,274.9 389,271.9 389.8,271.2 C390.4,270.7 395.2,269.7 400.4,269.1 C406.7,268.4 411.6,267.2 415,265.6 C421.6,262.3 429.9,253.9 433.2,247.2 C435.5,242.5 435.7,241.1 435.3,233.7 C434.6,220.9 430.3,213.7 419.1,206.3 C413.6,202.6 413.1,203.1 427.4,197.9 C437.9,194.1 445,188.7 448.8,181.6 C452.1,175.3 451.9,163.5 448.2,155.5 C446.6,152.2 444.5,148.5 443.4,147.4 C440.2,144 429.9,139.7 425.9,140.2 C423.3,140.5 422.5,140.2 422.5,139 C422.6,135.9 425.2,132.9 431.5,128.7 C439.1,123.8 443.5,118.3 446.5,110.3 C449.7,101.9 449.1,87 445.3,78.8 C439.8,66.9 429.2,59.1 415.3,56.9 C411.8,56.3 408.6,55.4 408,54.9 C407.4,54.3 406.9,43.6 406.7,28.2 C406.59401,16.2230762 406.459934,9.66654823 406.148937,6.00018926 L430.469258,5.99899954 C430.714098,8.47219376 430.930517,11.218319 431.10139,14.0415045 Z M436.8,279.8 C436.2,281.3 431.6,283.8 426.4,285.4 L422.7,286.5 L427.5,296.2 C430.6,302.7 433.3,310.4 435.5,319.2 C438.4,331 438.7,333.5 438.3,343.1 C437.9,352.1 437.4,354.6 435.2,359.3 C431.1,367.5 425.1,370.5 418.2,367.6 C413.2,365.5 411.5,361.7 411.5,352.3 C411.5,348 410.6,340.9 409.6,336.5 C409.448485,335.833333 409.294674,335.148301 409.14135,334.458817 L408.957773,333.630189 C408.16483,330.037925 407.415152,326.475758 407.1,324.9 C406.8,323 405.9,320.5 405.1,319.5 C403.9,317.8 403.6,318 400.7,322.2 C399.369565,324.156522 395.650473,328.195463 391.699704,332.111909 L391.039467,332.763138 C390.157278,333.628922 389.269565,334.482609 388.4,335.3 L379.2,343.8 L384.2,352.7 C387,357.5 391.6,366 394.4,371.5 C401.5,385.2 405.9,390.8 412.4,394.2 C418.6,397.4 424.7,397.8 431.7,395.5 C437.2,393.6 445.6,385.5 448.5,379.3 C452,371.9 453.6,363.1 454.2,348.5 C454.8,332.7 452.5,315.8 447.9,302.2 C447.134694,299.929592 446.076541,297.242691 444.914796,294.529426 L444.634085,293.877937 C444.539917,293.660738 444.445182,293.44357 444.349978,293.226633 L444.063055,292.576714 C443.96701,292.360438 443.870592,292.144593 443.773899,291.929378 L443.48309,291.285824 C440.422959,284.552551 437.185714,278.642857 436.8,279.8 Z M39.4,278.9 L35.4,287.5 C27,305.8 23.2,323.4 23.2,344 C23.2,362.2 24.9,371.4 29.8,380.9 C37.1,395.1 51.2,400.2 64.6,393.4 C71.5,390 75.7,384.3 84.7,366.5 C84.9213115,366.067213 85.1431067,365.633942 85.3649693,365.201033 L85.8086611,364.335944 C89.9483203,356.270949 94.0147541,348.527869 95.3,346.6 L97.7,342.7 L94.9,340.6 C90.4,337.4 85.6,332 81.2,325.1 C77.6,319.5 77,318.9 75.9,320.4 C74.9217391,321.769565 72.4122873,328.761472 70.1035963,335.969223 L69.7971126,336.931061 C67.5096881,344.147318 65.5,351.33913 65.5,353.1 C65.5,362.6 61.3,368 54,368 C43,368 37.8,356.2 39.7,334.9 C41.1,317.3 47.9,295.9 54.3,288.7 C55.7,287.1 55.7,286.8 54.5,286 C53.7,285.4 52.4,285 51.6,285 C50.8,285 47.7,283.6 44.8,282 L39.4,278.9 Z" id="Combined-Shape" fill="#000000"></path>
                <path d="M64.6,393.978683 C71.5,390.578683 75.7,384.878683 84.7,367.078683 C89.2,358.278683 93.9,349.278683 95.3,347.178683 L97.7,343.278683 L94.9,341.178683 C90.4,337.978683 85.6,332.578683 81.2,325.678683 C77.6,320.078683 77,319.478683 75.9,320.978683 C73.9,323.778683 65.5,350.078683 65.5,353.678683 C65.5,363.178683 61.3,368.578683 54,368.578683 C43,368.578683 37.8,356.778683 39.7,335.478683 C41.1,317.878683 47.9,296.478683 54.3,289.278683 C55.7,287.678683 55.7,287.378683 54.5,286.578683 C53.7,285.978683 52.4,285.578683 51.6,285.578683 C50.8,285.578683 47.7,284.178683 44.8,282.578683 L39.4,279.478683 L35.4,288.078683 C27,306.378683 23.2,323.978683 23.2,344.578683 C23.2,362.778683 24.9,371.978683 29.8,381.478683 C37.1,395.678683 51.2,400.778683 64.6,393.978683 Z" id="Path" fill="#FFFFFF"></path>
                <path d="M431.7,394.745732 C437.2,392.845732 445.6,384.745732 448.5,378.545732 C452,371.145732 453.6,362.345732 454.2,347.745732 C454.8,331.945732 452.5,315.045732 447.9,301.445732 C444.9,292.545732 437.4,277.245732 436.8,279.045732 C436.2,280.545732 431.6,283.045732 426.4,284.645732 L422.7,285.745732 L427.5,295.445732 C430.6,301.945732 433.3,309.645732 435.5,318.445732 C438.4,330.245732 438.7,332.745732 438.3,342.345732 C437.9,351.345732 437.4,353.845732 435.2,358.545732 C431.1,366.745732 425.1,369.745732 418.2,366.845732 C413.2,364.745732 411.5,360.945732 411.5,351.545732 C411.5,347.245732 410.6,340.145732 409.6,335.745732 C408.6,331.345732 407.5,326.145732 407.1,324.145732 C406.8,322.245732 405.9,319.745732 405.1,318.745732 C403.9,317.045732 403.6,317.245732 400.7,321.445732 C399,323.945732 393.4,329.845732 388.4,334.545732 L379.2,343.045732 L384.2,351.945732 C387,356.745732 391.6,365.245732 394.4,370.745732 C401.5,384.445732 405.9,390.045732 412.4,393.445732 C418.6,396.645732 424.7,397.045732 431.7,394.745732 Z" id="Path" fill="#FFFFFF"></path>
                <path d="M229.5,380.1 C233.6,379 245.3,376.2 255.4,374 C277.1,369.2 286.9,365.6 297.1,358.8 C309.5,350.5 315.2,342 319.5,325.3 C321,319.2 324.8,318.7 334.1,323.1 C340,325.8 342.1,326.3 348.5,326.3 C359.3,326.4 365.3,324.1 372.9,316.9 C383.2,307.3 388.5,294.7 388.5,279.7 C388.5,274.9 389,271.9 389.8,271.2 C390.4,270.7 395.2,269.7 400.4,269.1 C406.7,268.4 411.6,267.2 415,265.6 C421.6,262.3 429.9,253.9 433.2,247.2 C435.5,242.5 435.7,241.1 435.3,233.7 C434.6,220.9 430.3,213.7 419.1,206.3 C413.6,202.6 413.1,203.1 427.4,197.9 C437.9,194.1 445,188.7 448.8,181.6 C452.1,175.3 451.9,163.5 448.2,155.5 C446.6,152.2 444.5,148.5 443.4,147.4 C440.2,144 429.9,139.7 425.9,140.2 C423.3,140.5 422.5,140.2 422.5,139 C422.6,135.9 425.2,132.9 431.5,128.7 C439.1,123.8 443.5,118.3 446.5,110.3 C449.7,101.9 449.1,87 445.3,78.8 C439.8,66.9 429.2,59.1 415.3,56.9 C411.8,56.3 408.6,55.4 408,54.9 C407.4,54.3 406.9,43.6 406.7,28.2 C406.5,5.6 406.2,2.3 404.8,1.3 C403.5,0.3 368.7,0 238.8,0 L74.5,0 L74.1,2.3 C72.8,8.1 72.8,13.8 73.7,30.4 C74.4,43.4 74.4,49.3 73.6,52.1 C72.5,55.6 72.2,55.8 66.7,56.8 C63.6,57.4 58.5,58.8 55.4,59.9 C40.5,65.5 32.5,80.5 33.8,100.2 C34.5,111.4 38.4,118.1 49.3,127.2 C56.3,133.1 57.6,134.6 57.3,136.8 C57.1,139 56.2,139.8 53,140.8 C38.9,145.2 35.7,147.8 32.5,157.6 C29.5,166.5 29.7,173.8 33,180.6 C37.4,189.6 46,195.7 56.7,197.5 C58.7,197.8 61.4,199 62.7,200.1 L65,202 L61.5,204.7 C50.6,213.2 48.5,216.7 45.3,232.1 C42.9,243.6 49.4,257.1 60.5,263.8 C67.4,267.9 71.1,268.9 82.8,269.8 L92,270.5 L91.7,278.2 C90.9,298.3 97.3,312.4 112.5,323.5 C117.1,326.9 127,331 130.4,331 C131.3,330.9 135.1,328 138.9,324.4 L145.7,317.8 L143.1,313 C139.5,306.5 137.6,290 139.2,280.4 C142,264 152.4,250.5 167.5,243.2 C179.5,237.5 183.4,236.6 197,236.6 C208.6,236.6 209.3,236.7 217.9,240.3 C222.8,242.3 227.9,245 229.2,246.2 L231.7,248.5 L234.8,244.5 C242.1,235.3 248.5,231.3 261.5,227.9 C283.8,222.1 306.3,228.4 321.9,245 C330.3,254 333,259.7 332.9,268.2 C332.9,275.6 331.4,278.3 326.8,279.5 C323.6,280.3 321.5,278.5 317.6,271.6 C306.9,252.7 282.6,244.1 263.9,252.5 C251.6,258 246.8,267.6 248.1,284 C248.7,292.5 248.7,292.9 246.2,295.3 C242.7,298.9 235.2,299.9 231.7,297.3 C227.9,294.5 225.4,288.9 223.9,279.8 C223.1,275.4 222,270.9 221.4,269.8 C220.8,268.7 217.3,266.4 213.7,264.7 C207.5,261.7 206.2,261.5 196.5,261.5 C187.4,261.5 185.3,261.8 181.1,264 C170.4,269.2 164.5,279.1 164.5,291.8 C164.5,303.6 170.2,312.3 184.5,322.7 C191.9,328.1 192.8,329.3 192,332.9 C190.7,338.7 188.6,339.5 174.8,339.3 L162.4,339.1 L158.4,343.1 C152.9,348.6 150.5,352.9 150.5,357.3 C150.5,360.7 150.7,361 153.4,361 C155,361 159.4,360.4 163.2,359.6 C166.9,358.8 176.3,357.5 184,356.6 C192.2,355.7 204.5,353.4 213.9,351 C222.6,348.8 230.6,347 231.7,347 C235.1,347 238.5,351.5 238.5,355.9 C238.5,359.6 238,360.3 230.3,367.1 C225.7,371.1 221.5,375.1 220.8,375.9 C219.1,378.1 219.1,383.4 220.8,382.7 C221.5,382.4 225.4,381.3 229.5,380.1 Z" id="Path" fill="#FFFFFF"></path>
                <path d="M121.6,200 C112.5,198.1 102,189.9 98.1,181.7 C92.1,169.1 94.5,153.4 104.1,142.1 C109,136.5 114.8,133.3 122.6,132.1 C138.7,129.5 151.3,135.9 158.8,150.5 C161.5,155.8 161.9,157.5 162,165 C162,172.7 161.7,174.2 158.6,180.5 C154.2,189.3 147.5,196.1 141,198.4 C134.7,200.5 127.2,201.1 121.6,200 Z M135.4,185.2 C141.4,180.8 141.4,171.6 135.4,166.5 C131.6,163.4 126.7,163.2 120.7,166.1 C114.8,169 112.8,173.4 114.7,179.4 C117.1,187.1 128.5,190.3 135.4,185.2 Z" id="Shape" fill="#000000"></path>
                <path d="M341.2,197.6 C325.7,191.1 318.8,179.8 319.7,162.6 C320.2,153 322.6,147.2 328.7,141 C335,134.4 342.2,131.6 352.5,131.5 C360.2,131.5 361.7,131.8 367.7,134.8 C375.2,138.5 379.2,142.7 383.2,151 C390.8,167.1 383.8,188.4 368.2,196.4 C360,200.6 349.4,201.1 341.2,197.6 Z M357.9,186.6 C367.6,182.6 369.1,169.8 360.5,164.7 C349.8,158.3 336.1,172.8 343.7,182.5 C345.7,185.1 350.6,187.9 353.3,188 C354,188 356,187.4 357.9,186.6 Z" id="Shape" fill="#000000"></path>
                <path d="M273.2,162.6 C271.6,161.7 267.3,160.1 263.7,159 C256.5,156.9 249.5,152.9 245.6,148.6 C244.2,147.2 242.6,146 241.8,146 C241.1,146 238.1,148.2 235,151 C228.9,156.6 224.4,159.1 216.6,161.4 C204.2,165 196.6,162.2 196.5,154 C196.5,146.6 203.1,140.2 213.5,137.5 C218.9,136.1 220.9,135 225.3,130.7 L225.609523,130.396429 C228.737548,127.328559 230.5,123.131366 230.5,118.75 L230.5,111.9 L230.5,101.444996 C230.5,99.4177022 229.486811,97.5245404 227.8,96.4 L227.8,96.4 L227.8,96.4 C223.8,93.8 215.6,93.4 211.4,95.5 C204.3,99.2 200.5,103 199.3,107.7 C196.5,119.1 188.1,121.4 179.3,113.2 C173.5,107.8 176.1,100.9 189,87.9 C197.9,79 202,76.6 212.6,74.4 C221.8,72.5 229,73.7 237.1,78.6 L238.694338,79.5679907 C241.09058,81.0228524 244.14643,80.7946416 246.3,79 L246.3,79 L246.3,79 C259,68.9 282.1,73.2 296,88.2 C301.5,94.1 305.6,100.9 306.9,106.2 C308.1,111.3 299.9,118 292.5,118 C288.2,118 285.9,115.2 285.1,108.7 C284.3,102.5 283.3,101.3 275.9,97.6 C269.4,94.3 260.6,94 255.9,96.9 C253.961836,98.0879069 252.740808,100.16141 252.642065,102.4325 L252.215703,112.238824 C252.205234,112.479607 252.193895,112.720352 252.181686,112.961053 L251.840325,119.690739 C251.623387,123.96751 253.204018,128.140274 256.2,131.2 L256.2,131.2 L256.2,131.2 C259.8,134.8 262.4,136.4 266.5,137.6 C277.7,140.9 280.4,142.2 283.9,146.1 C286.7,149.1 287.5,150.9 287.5,153.8 C287.5,160.8 279.3,165.8 273.2,162.6 Z" id="Path" fill="#000000"></path>
                <path d="M386.6,118.1 C381.7,113.2 381.9,101.9 387,98.6 C393.7,94.2 404.5,100.7 404.5,109.1 C404.5,116.7 391.6,123.1 386.6,118.1 Z" id="Path" fill="#000000"></path>
                <path d="M82.8,117.8 C75.9,114.4 76.7,101.5 84.1,98.2 C90.9,95 96.2,97.8 98.5,105.7 C100.9,113.8 97.5,119 89.8,118.9 C87.1,118.9 84,118.4 82.8,117.8 Z" id="Path" fill="#000000"></path>
                <path d="M108.9,116 C102.8,113.6 100.1,102.4 104.5,98 C108.9,93.6 119.3,96.8 122.1,103.5 C123.3,106.5 123.3,107.5 122.1,110.4 C119.7,116.1 114.6,118.3 108.9,116 Z" id="Path" fill="#000000"></path>
                <path d="M363.2,116 C360.9,114.5 358.5,109.7 358.5,106.5 C358.5,103.1 360.9,98.5 363.7,96.6 C364.9,95.7 367.9,95 370.2,95 C373.9,95 374.6,95.4 376,98 C378.5,102.8 378,109.5 374.8,113 C371.7,116.4 366.2,117.8 363.2,116 Z" id="Path" fill="#000000"></path>
            </g>
        </g>
    </g>
</svg>